<svg width="334" height="28" viewBox="0 0 334 28" fill="none" xmlns="http://www.w3.org/2000/svg">
<g filter="url(#filter0_d_35_61)">
<path d="M196.589 8.17545C123.307 8.17545 46.4668 15.1131 11.3839 19.2259C7.99201 19.6235 5 16.9817 5 13.5666C5 10.5455 7.34036 8.05539 10.3576 7.90294C44.9357 6.15576 116.001 2.77231 162.562 1.27779C210.757 -0.269192 290.905 5.01447 326.977 8.00619C328.139 8.10256 329 9.07177 329 10.2378C329 11.5259 327.92 12.5504 326.635 12.4645C309.579 11.3251 289.902 8.17545 196.589 8.17545Z" fill="#6FC2C5"/>
<path d="M196.589 8.17545C123.307 8.17545 46.4668 15.1131 11.3839 19.2259C7.99201 19.6235 5 16.9817 5 13.5666C5 10.5455 7.34036 8.05539 10.3576 7.90294C44.9357 6.15576 116.001 2.77231 162.562 1.27779C210.757 -0.269192 290.905 5.01447 326.977 8.00619C328.139 8.10256 329 9.07177 329 10.2378C329 11.5259 327.92 12.5504 326.635 12.4645C309.579 11.3251 289.902 8.17545 196.589 8.17545Z" stroke="black"/>
</g>
<defs>
<filter id="filter0_d_35_61" x="0.5" y="0.500031" width="333" height="27.2656" filterUnits="userSpaceOnUse" color-interpolation-filters="sRGB">
<feFlood flood-opacity="0" result="BackgroundImageFix"/>
<feColorMatrix in="SourceAlpha" type="matrix" values="0 0 0 0 0 0 0 0 0 0 0 0 0 0 0 0 0 0 127 0" result="hardAlpha"/>
<feOffset dy="4"/>
<feGaussianBlur stdDeviation="2"/>
<feComposite in2="hardAlpha" operator="out"/>
<feColorMatrix type="matrix" values="0 0 0 0 0 0 0 0 0 0 0 0 0 0 0 0 0 0 0.25 0"/>
<feBlend mode="normal" in2="BackgroundImageFix" result="effect1_dropShadow_35_61"/>
<feBlend mode="normal" in="SourceGraphic" in2="effect1_dropShadow_35_61" result="shape"/>
</filter>
</defs>
</svg>
